<?xml version="1.0" encoding="UTF-8" standalone="no"?><!DOCTYPE svg PUBLIC "-//W3C//DTD SVG 1.1//EN" "http://www.w3.org/Graphics/SVG/1.1/DTD/svg11.dtd"><svg width="100%" height="100%" viewBox="0 0 450 135" version="1.1" xmlns="http://www.w3.org/2000/svg" xmlns:xlink="http://www.w3.org/1999/xlink" xml:space="preserve" xmlns:serif="http://www.serif.com/" style="fill-rule:evenodd;clip-rule:evenodd;stroke-linejoin:round;stroke-miterlimit:1.41421;"><g id="rond"><path id="path5755" d="M63.465,11.459l0.235,0.002l0.236,0.003l0.235,0.004l0.235,0.005l0.235,0.006l0.235,0.008l0.235,0.008l0.234,0.009l0.235,0.011l0.235,0.011l0.234,0.013l0.235,0.013l0.234,0.015l0.235,0.015l0.234,0.017l0.234,0.017l0.234,0.019l0.234,0.02l0.233,0.02l0.234,0.022l0.233,0.023l0.234,0.024l0.233,0.025l0.233,0.026l0.233,0.027l0.233,0.027l0.233,0.029l0.232,0.03l0.233,0.031l0.232,0.033l0.232,0.033l0.232,0.034l0.231,0.035l0.232,0.036l0.231,0.037l0.232,0.038l0.231,0.04l0.23,0.04l0.231,0.041l0.231,0.042l0.23,0.044l0.23,0.044l0.23,0.045l0.23,0.047l0.229,0.047l0.229,0.048l0.229,0.05l0.229,0.05l0.229,0.052l0.228,0.052l0.228,0.054l0.228,0.054l0.228,0.055l0.227,0.057l0.227,0.057l0.227,0.059l0.227,0.059l0.227,0.061l0.226,0.062l0.226,0.062l0.225,0.064l0.226,0.064l0.225,0.066l0.224,0.066l0.225,0.068l0.224,0.069l0.224,0.069l0.224,0.071l0.223,0.071l0.223,0.073l0.223,0.074l0.222,0.074l0.223,0.076l0.222,0.076l0.221,0.078l0.221,0.079l0.221,0.079l0.221,0.081l0.22,0.081l0.22,0.083l0.219,0.084l0.219,0.084l0.219,0.086l0.219,0.086l0.218,0.088l0.218,0.088l0.217,0.09l0.217,0.091l0.217,0.091l0.216,0.093l0.216,0.093l0.215,0.095l0.216,0.095l0.214,0.097l0.215,0.097l0.214,0.099l0.213,0.099l0.213,0.101l0.213,0.101l0.213,0.103l0.212,0.103l0.211,0.105l0.211,0.105l0.211,0.107l0.21,0.107l0.21,0.108l0.209,0.11l0.209,0.11l0.209,0.111l0.207,0.113l0.208,0.113l0.207,0.114l0.207,0.115l0.206,0.117l0.206,0.117l0.205,0.118l0.205,0.119l0.204,0.12l0.204,0.122l0.203,0.122l0.203,0.123l0.202,0.124l0.202,0.125l6.966,4.361l-8.491,13.562l-6.935,-4.342l-0.139,-0.086l-0.139,-0.086l-0.14,-0.085l-0.14,-0.084l-0.141,-0.084l-0.14,-0.082l-0.142,-0.083l-0.141,-0.081l-0.142,-0.081l-0.142,-0.08l-0.143,-0.08l-0.143,-0.079l-0.143,-0.078l-0.144,-0.078l-0.144,-0.076l-0.144,-0.077l-0.145,-0.075l-0.145,-0.075l-0.146,-0.074l-0.145,-0.074l-0.146,-0.073l-0.146,-0.072l-0.147,-0.072l-0.147,-0.071l-0.147,-0.07l-0.148,-0.069l-0.148,-0.069l-0.148,-0.069l-0.149,-0.067l-0.148,-0.067l-0.149,-0.066l-0.15,-0.066l-0.15,-0.065l-0.149,-0.064l-0.151,-0.063l-0.15,-0.063l-0.151,-0.062l-0.151,-0.062l-0.152,-0.06l-0.151,-0.061l-0.152,-0.059l-0.152,-0.059l-0.153,-0.058l-0.153,-0.057l-0.153,-0.057l-0.153,-0.056l-0.153,-0.055l-0.154,-0.055l-0.154,-0.054l-0.154,-0.053l-0.155,-0.053l-0.154,-0.051l-0.155,-0.052l-0.156,-0.05l-0.155,-0.05l-0.156,-0.049l-0.155,-0.049l-0.156,-0.047l-0.157,-0.047l-0.156,-0.047l-0.157,-0.045l-0.157,-0.045l-0.157,-0.045l-0.157,-0.043l-0.158,-0.043l-0.158,-0.042l-0.158,-0.042l-0.158,-0.04l-0.158,-0.04l-0.159,-0.04l-0.158,-0.038l-0.159,-0.038l-0.159,-0.038l-0.16,-0.036l-0.159,-0.036l-0.159,-0.035l-0.16,-0.035l-0.16,-0.033l-0.16,-0.034l-0.16,-0.032l-0.161,-0.031l-0.16,-0.031l-0.161,-0.031l-0.161,-0.029l-0.161,-0.029l-0.161,-0.028l-0.161,-0.027l-0.161,-0.027l-0.162,-0.026l-0.162,-0.025l-0.161,-0.025l-0.162,-0.023l-0.162,-0.024l-0.162,-0.022l-0.162,-0.022l-0.163,-0.021l-0.162,-0.02l-0.163,-0.019l-0.162,-0.019l-0.163,-0.018l-0.163,-0.018l-0.163,-0.016l-0.163,-0.016l-0.163,-0.015l-0.163,-0.015l-0.163,-0.014l-0.164,-0.013l-0.163,-0.012l-0.164,-0.011l-0.163,-0.011l-0.164,-0.01l-0.163,-0.01l-0.164,-0.009l-0.164,-0.008l-0.164,-0.007l-0.164,-0.006l-0.164,-0.006l-0.164,-0.005l-0.164,-0.005l-0.164,-0.003l-0.164,-0.003l-0.164,-0.002l-0.164,-0.002l-0.164,0l-0.165,0l-0.164,0.001l-0.164,0.001l-0.164,0.002l-0.165,0.003l-0.164,0.004l-0.164,0.004l-0.164,0.005l-0.165,0.006l-0.164,0.007l-0.164,0.007l-0.165,0.008l-0.164,0.009l-0.164,0.01l-0.164,0.01l-0.165,0.011l-0.164,0.012l-0.164,0.012l-0.164,0.014l-0.164,0.014l-0.164,0.014l-0.164,0.016l-0.164,0.016l-0.164,0.017l-0.164,0.018l-0.164,0.018l-0.164,0.019l-0.164,0.02l-0.164,0.021l-0.163,0.021l-0.164,0.022l-0.163,0.023l-0.164,0.024l-0.163,0.024l-0.164,0.025l-0.163,0.026l-0.163,0.027l-0.163,0.027l-0.163,0.028l-0.163,0.029l-0.163,0.03l-0.163,0.03l-0.162,0.031l-0.163,0.032l-0.162,0.032l-0.163,0.034l-0.162,0.034l-0.162,0.035l-0.162,0.035l-0.162,0.036l-0.162,0.037l-0.162,0.038l-0.161,0.039l-0.162,0.039l-0.161,0.04l-0.161,0.041l-0.161,0.042l-0.161,0.042l-0.161,0.043l-0.161,0.044l-0.16,0.044l-0.161,0.046l-0.16,0.046l-0.16,0.047l-0.16,0.047l-0.16,0.049l-0.159,0.049l-0.16,0.05l-0.159,0.05l-0.159,0.052l-0.159,0.052l-0.159,0.053l-0.159,0.053l-0.158,0.055l-0.159,0.055l-0.158,0.056l-0.158,0.057l-0.157,0.057l-0.158,0.059l-0.158,0.059l-0.157,0.059l-0.157,0.061l-0.157,0.061l-0.156,0.062l-0.157,0.063l-0.156,0.064l-0.156,0.064l-0.156,0.065l-0.156,0.066l-0.155,0.067l-0.155,0.067l-0.155,0.069l-0.155,0.069l-0.155,0.069l-0.154,0.071l-0.154,0.071l-0.154,0.072l-0.154,0.073l-0.153,0.074l-0.153,0.074l-0.153,0.076l-0.153,0.076l-0.153,0.077l-0.152,0.077l-0.152,0.078l-0.152,0.08l-0.151,0.08l-0.152,0.08l-0.151,0.082l-0.151,0.082l-0.15,0.083l-0.151,0.084l-0.15,0.085l-0.149,0.085l-0.15,0.086l-0.149,0.087l-0.149,0.088l-0.149,0.089l-0.148,0.089l-0.148,0.09l-0.148,0.091l-0.148,0.092l-0.147,0.093l-0.147,0.093l-0.147,0.094l-0.147,0.095l-0.146,0.096l-0.146,0.097l-0.146,0.097l-0.145,0.098l-0.142,0.098l-0.196,0.135l-0.191,0.134l-0.191,0.135l-0.189,0.136l-0.188,0.137l-0.187,0.139l-0.186,0.139l-0.185,0.14l-0.183,0.141l-0.182,0.142l-0.182,0.143l-0.18,0.144l-0.179,0.145l-0.177,0.146l-0.177,0.147l-0.176,0.147l-0.174,0.149l-0.173,0.15l-0.172,0.15l-0.171,0.151l-0.17,0.153l-0.168,0.153l-0.168,0.154l-0.166,0.155l-0.165,0.156l-0.164,0.156l-0.163,0.158l-0.162,0.159l-0.161,0.159l-0.159,0.16l-0.158,0.161l-0.157,0.162l-0.156,0.163l-0.155,0.163l-0.154,0.164l-0.153,0.166l-0.151,0.166l-0.15,0.166l-0.149,0.168l-0.148,0.168l-0.147,0.17l-0.146,0.17l-0.144,0.17l-0.144,0.172l-0.142,0.172l-0.141,0.173l-0.14,0.174l-0.138,0.175l-0.138,0.175l-0.136,0.176l-0.136,0.177l-0.134,0.177l-0.133,0.178l-0.131,0.179l-0.131,0.18l-0.129,0.18l-0.129,0.181l-0.127,0.182l-0.126,0.183l-0.124,0.183l-0.124,0.183l-0.122,0.185l-0.121,0.185l-0.12,0.186l-0.119,0.186l-0.118,0.187l-0.117,0.188l-0.115,0.188l-0.114,0.189l-0.113,0.19l-0.112,0.19l-0.11,0.191l-0.11,0.191l-0.108,0.192l-0.107,0.193l-0.106,0.193l-0.104,0.194l-0.104,0.194l-0.102,0.195l-0.101,0.195l-0.1,0.196l-0.099,0.197l-0.097,0.197l-0.096,0.198l-0.095,0.198l-0.094,0.198l-0.093,0.199l-0.091,0.2l-0.09,0.2l-0.089,0.201l-0.088,0.201l-0.086,0.201l-0.086,0.202l-0.084,0.203l-0.083,0.203l-0.081,0.203l-0.081,0.204l-0.079,0.205l-0.078,0.204l-0.077,0.205l-0.075,0.206l-0.075,0.206l-0.073,0.206l-0.071,0.207l-0.071,0.207l-0.069,0.208l-0.068,0.208l-0.067,0.208l-0.066,0.209l-0.064,0.209l-0.063,0.209l-0.062,0.209l-0.061,0.21l-0.059,0.211l-0.058,0.21l-0.057,0.211l-0.056,0.212l-0.054,0.211l-0.053,0.212l-0.052,0.212l-0.051,0.213l-0.049,0.212l-0.048,0.213l-0.047,0.213l-0.045,0.214l-0.045,0.214l-0.043,0.213l-0.042,0.215l-0.04,0.214l-0.039,0.214l-0.038,0.215l-0.037,0.215l-0.035,0.215l-0.034,0.216l-0.033,0.215l-0.032,0.216l-0.03,0.216l-0.029,0.216l-0.028,0.216l-0.026,0.216l-0.025,0.217l-0.024,0.216l-0.023,0.217l-0.021,0.217l-0.02,0.217l-0.019,0.217l-0.017,0.217l-0.016,0.217l-0.015,0.217l-0.013,0.217l-0.013,0.218l-0.011,0.217l-0.009,0.218l-0.009,0.217l-0.007,0.218l-0.005,0.217l-0.005,0.218l-0.003,0.218l-0.002,0.217l0,0.218l0,0.218l0.002,0.217l0.004,0.218l0.004,0.218l0.006,0.217l0.008,0.218l0.008,0.217l0.01,0.218l0.011,0.217l0.013,0.217l0.014,0.217l0.015,0.218l0.016,0.217l0.018,0.217l0.019,0.216l0.02,0.217l0.022,0.217l0.023,0.217l0.025,0.216l0.025,0.216l0.027,0.216l0.029,0.216l0.029,0.216l0.031,0.216l0.032,0.216l0.034,0.215l0.035,0.215l0.036,0.215l0.038,0.215l0.039,0.215l0.04,0.214l0.041,0.214l0.043,0.214l0.045,0.214l0.045,0.214l0.047,0.213l0.048,0.213l0.05,0.213l0.051,0.213l0.052,0.212l0.053,0.212l0.055,0.212l0.057,0.212l0.057,0.211l0.059,0.211l0.06,0.211l0.062,0.21l0.063,0.211l0.064,0.209l0.066,0.21l0.067,0.209l0.068,0.209l0.07,0.209l0.071,0.208l0.072,0.208l0.074,0.208l0.075,0.207l0.077,0.207l0.078,0.206l0.079,0.207l0.08,0.205l0.082,0.206l0.083,0.205l0.085,0.205l0.086,0.204l0.087,0.204l0.089,0.204l0.09,0.203l0.092,0.202l0.093,0.203l0.094,0.202l0.096,0.201l0.097,0.201l0.098,0.201l0.1,0.2l0.101,0.2l0.103,0.199l0.104,0.199l0.105,0.198l0.107,0.198l0.108,0.198l0.109,0.197l0.111,0.196l0.113,0.196l0.114,0.196l0.115,0.195l0.116,0.195l0.118,0.194l0.12,0.193l0.121,0.193l0.122,0.193l0.124,0.192l0.125,0.192l0.126,0.191l0.129,0.19l0.129,0.19l0.131,0.189l0.131,0.188l0.133,0.187l0.134,0.186l0.135,0.184l0.135,0.184l0.137,0.182l0.138,0.181l0.139,0.18l0.139,0.179l0.141,0.177l0.141,0.177l0.143,0.175l0.143,0.174l0.145,0.173l0.145,0.172l0.147,0.171l0.147,0.17l0.148,0.168l0.149,0.168l0.15,0.166l0.151,0.165l0.152,0.164l0.153,0.163l0.153,0.161l0.155,0.161l0.155,0.159l0.157,0.159l0.157,0.157l0.158,0.156l0.159,0.155l0.159,0.153l0.161,0.153l0.161,0.151l0.163,0.151l0.163,0.149l0.164,0.148l0.164,0.147l0.166,0.146l0.166,0.144l0.168,0.144l0.168,0.142l0.168,0.141l0.17,0.14l0.17,0.139l0.172,0.138l0.172,0.136l0.172,0.136l0.174,0.134l0.174,0.133l0.175,0.132l0.176,0.131l0.176,0.13l0.177,0.128l0.179,0.128l0.178,0.126l0.18,0.125l0.18,0.124l0.181,0.123l0.181,0.122l0.182,0.12l0.183,0.119l0.184,0.118l0.184,0.117l0.185,0.116l0.186,0.115l0.186,0.113l0.187,0.113l0.188,0.111l0.188,0.11l0.189,0.109l0.189,0.107l0.191,0.107l0.19,0.105l0.192,0.104l0.192,0.103l0.192,0.102l0.194,0.1l0.193,0.099l0.195,0.099l0.195,0.097l0.195,0.095l0.196,0.095l0.197,0.093l0.197,0.093l0.198,0.091l0.198,0.089l0.199,0.089l0.199,0.087l0.2,0.087l0.201,0.085l0.2,0.083l0.202,0.083l0.202,0.081l0.202,0.081l0.203,0.079l0.203,0.077l0.204,0.077l0.204,0.075l0.205,0.074l0.205,0.073l0.205,0.072l0.206,0.07l0.207,0.069l0.207,0.068l0.207,0.067l0.207,0.065l0.209,0.065l0.208,0.063l0.209,0.062l0.209,0.06l0.21,0.059l0.21,0.059l0.21,0.056l0.21,0.056l0.212,0.054l0.211,0.053l0.211,0.052l0.212,0.051l0.213,0.049l0.212,0.048l0.213,0.047l0.213,0.046l0.214,0.044l0.214,0.043l0.214,0.042l0.214,0.041l0.215,0.039l0.215,0.038l0.215,0.037l0.215,0.035l0.215,0.035l0.216,0.033l0.216,0.031l0.216,0.031l0.217,0.029l0.216,0.028l0.217,0.026l0.217,0.026l0.217,0.024l0.217,0.023l0.218,0.021l0.218,0.02l0.217,0.019l0.218,0.018l0.218,0.016l0.218,0.015l0.219,0.014l0.218,0.013l0.218,0.011l0.219,0.01l0.219,0.008l0.218,0.008l0.219,0.006l0.219,0.004l0.219,0.004l0.219,0.002l0.219,0.001l0.219,-0.001l0.219,-0.001l0.22,-0.003l0.219,-0.005l0.219,-0.005l0.219,-0.007l0.22,-0.009l0.219,-0.009l0.219,-0.011l0.219,-0.012l0.219,-0.014l0.219,-0.015l0.219,-0.016l0.219,-0.017l0.219,-0.019l0.219,-0.02l0.219,-0.021l0.219,-0.023l0.219,-0.024l0.218,-0.026l0.219,-0.026l0.218,-0.028l0.218,-0.029l0.218,-0.031l0.219,-0.032l0.218,-0.033l0.217,-0.035l0.218,-0.036l0.218,-0.037l0.217,-0.039l0.217,-0.04l0.217,-0.041l0.217,-0.042l0.217,-0.044l0.216,-0.045l0.217,-0.047l0.216,-0.048l0.216,-0.049l0.215,-0.051l0.216,-0.052l0.215,-0.053l0.215,-0.054l0.215,-0.056l0.215,-0.057l0.214,-0.059l0.214,-0.06l0.214,-0.061l0.213,-0.063l0.214,-0.064l0.213,-0.065l0.213,-0.067l0.212,-0.068l0.212,-0.069l0.212,-0.071l0.212,-0.072l0.211,-0.074l0.211,-0.074l0.211,-0.077l0.21,-0.077l0.21,-0.079l0.21,-0.08l0.209,-0.082l0.209,-0.083l0.208,-0.084l0.209,-0.086l0.208,-0.087l0.207,-0.088l0.207,-0.09l0.207,-0.091l0.207,-0.093l0.206,-0.094l0.205,-0.095l0.205,-0.097l0.205,-0.098l0.205,-0.1l0.204,-0.1l0.203,-0.103l0.203,-0.103l0.203,-0.105l0.202,-0.107l0.202,-0.108l0.201,-0.109l0.201,-0.11l0.201,-0.113l0.2,-0.113l0.199,-0.115l0.2,-0.116l0.198,-0.118l0.198,-0.119l0.198,-0.12l0.197,-0.122l0.197,-0.124l0.196,-0.124l0.196,-0.127l0.195,-0.127l0.194,-0.129l0.195,-0.131l6.824,-4.652l9.013,13.22l-6.867,4.681l-0.279,0.187l-0.279,0.186l-0.28,0.183l-0.281,0.181l-0.282,0.179l-0.283,0.178l-0.283,0.175l-0.284,0.173l-0.285,0.172l-0.286,0.169l-0.286,0.167l-0.288,0.165l-0.288,0.164l-0.288,0.161l-0.29,0.159l-0.29,0.158l-0.291,0.155l-0.291,0.154l-0.292,0.151l-0.293,0.149l-0.293,0.148l-0.294,0.145l-0.295,0.144l-0.296,0.141l-0.295,0.139l-0.297,0.138l-0.297,0.135l-0.298,0.134l-0.298,0.132l-0.299,0.129l-0.299,0.128l-0.3,0.125l-0.301,0.124l-0.301,0.122l-0.301,0.119l-0.302,0.118l-0.302,0.116l-0.303,0.114l-0.304,0.111l-0.304,0.11l-0.304,0.108l-0.305,0.106l-0.305,0.104l-0.305,0.102l-0.306,0.1l-0.307,0.098l-0.306,0.096l-0.307,0.094l-0.308,0.093l-0.308,0.09l-0.308,0.088l-0.309,0.087l-0.308,0.084l-0.309,0.083l-0.31,0.08l-0.31,0.079l-0.31,0.076l-0.31,0.075l-0.311,0.073l-0.311,0.071l-0.311,0.069l-0.311,0.067l-0.312,0.065l-0.311,0.063l-0.312,0.061l-0.313,0.059l-0.312,0.058l-0.313,0.055l-0.312,0.054l-0.314,0.052l-0.313,0.049l-0.313,0.048l-0.313,0.046l-0.314,0.044l-0.313,0.042l-0.314,0.04l-0.314,0.039l-0.314,0.036l-0.314,0.034l-0.314,0.033l-0.314,0.031l-0.315,0.029l-0.314,0.026l-0.314,0.025l-0.315,0.024l-0.314,0.021l-0.314,0.019l-0.315,0.018l-0.314,0.015l-0.315,0.014l-0.314,0.012l-0.314,0.01l-0.315,0.008l-0.314,0.006l-0.314,0.005l-0.314,0.002l-0.314,0.001l-0.314,-0.001l-0.314,-0.003l-0.314,-0.005l-0.313,-0.007l-0.314,-0.009l-0.313,-0.01l-0.314,-0.013l-0.313,-0.014l-0.313,-0.016l-0.313,-0.018l-0.312,-0.02l-0.313,-0.021l-0.312,-0.024l-0.312,-0.025l-0.312,-0.027l-0.312,-0.029l-0.311,-0.031l-0.312,-0.032l-0.311,-0.035l-0.31,-0.036l-0.311,-0.038l-0.31,-0.04l-0.31,-0.042l-0.31,-0.044l-0.309,-0.045l-0.309,-0.047l-0.309,-0.049l-0.309,-0.051l-0.308,-0.053l-0.308,-0.054l-0.307,-0.057l-0.307,-0.058l-0.307,-0.06l-0.307,-0.062l-0.306,-0.063l-0.305,-0.065l-0.306,-0.068l-0.305,-0.069l-0.304,-0.07l-0.304,-0.073l-0.304,-0.075l-0.303,-0.076l-0.303,-0.078l-0.302,-0.08l-0.302,-0.081l-0.302,-0.083l-0.301,-0.086l-0.3,-0.087l-0.3,-0.088l-0.299,-0.091l-0.299,-0.092l-0.299,-0.094l-0.298,-0.096l-0.297,-0.098l-0.297,-0.1l-0.296,-0.101l-0.296,-0.103l-0.295,-0.105l-0.294,-0.106l-0.294,-0.109l-0.294,-0.11l-0.293,-0.112l-0.292,-0.114l-0.291,-0.115l-0.291,-0.117l-0.29,-0.119l-0.29,-0.121l-0.289,-0.123l-0.288,-0.124l-0.288,-0.126l-0.287,-0.128l-0.286,-0.13l-0.285,-0.131l-0.285,-0.133l-0.284,-0.135l-0.284,-0.137l-0.282,-0.138l-0.282,-0.14l-0.281,-0.142l-0.28,-0.144l-0.28,-0.146l-0.278,-0.147l-0.278,-0.149l-0.278,-0.15l-0.276,-0.153l-0.275,-0.154l-0.275,-0.156l-0.274,-0.158l-0.273,-0.159l-0.272,-0.161l-0.271,-0.163l-0.27,-0.165l-0.27,-0.166l-0.268,-0.168l-0.268,-0.17l-0.267,-0.172l-0.265,-0.173l-0.265,-0.175l-0.264,-0.177l-0.263,-0.178l-0.262,-0.181l-0.261,-0.182l-0.26,-0.183l-0.259,-0.186l-0.258,-0.187l-0.257,-0.189l-0.255,-0.19l-0.255,-0.192l-0.254,-0.194l-0.253,-0.196l-0.252,-0.198l-0.25,-0.199l-0.25,-0.2l-0.248,-0.203l-0.247,-0.204l-0.247,-0.206l-0.245,-0.207l-0.244,-0.21l-0.242,-0.211l-0.242,-0.212l-0.24,-0.215l-0.24,-0.216l-0.238,-0.217l-0.236,-0.22l-0.236,-0.221l-0.235,-0.223l-0.233,-0.224l-0.232,-0.226l-0.23,-0.228l-0.23,-0.229l-0.228,-0.231l-0.227,-0.233l-0.225,-0.234l-0.225,-0.236l-0.223,-0.238l-0.221,-0.239l-0.221,-0.241l-0.218,-0.243l-0.218,-0.244l-0.216,-0.246l-0.215,-0.248l-0.214,-0.249l-0.212,-0.251l-0.21,-0.252l-0.21,-0.254l-0.207,-0.256l-0.207,-0.257l-0.205,-0.259l-0.203,-0.26l-0.202,-0.262l-0.201,-0.264l-0.199,-0.265l-0.197,-0.267l-0.196,-0.268l-0.195,-0.27l-0.192,-0.272l-0.192,-0.273l-0.19,-0.275l-0.188,-0.275l-0.186,-0.277l-0.184,-0.278l-0.182,-0.279l-0.18,-0.279l-0.178,-0.28l-0.176,-0.281l-0.174,-0.282l-0.172,-0.283l-0.169,-0.283l-0.168,-0.285l-0.166,-0.285l-0.164,-0.285l-0.162,-0.287l-0.159,-0.287l-0.158,-0.288l-0.156,-0.289l-0.154,-0.29l-0.151,-0.29l-0.15,-0.29l-0.148,-0.292l-0.145,-0.292l-0.144,-0.293l-0.142,-0.294l-0.139,-0.294l-0.138,-0.294l-0.136,-0.296l-0.133,-0.296l-0.132,-0.296l-0.129,-0.298l-0.128,-0.297l-0.125,-0.299l-0.124,-0.298l-0.121,-0.3l-0.12,-0.3l-0.118,-0.3l-0.115,-0.301l-0.114,-0.301l-0.111,-0.302l-0.11,-0.303l-0.107,-0.302l-0.106,-0.304l-0.104,-0.304l-0.101,-0.304l-0.1,-0.304l-0.098,-0.305l-0.095,-0.306l-0.094,-0.306l-0.092,-0.306l-0.089,-0.306l-0.088,-0.307l-0.086,-0.308l-0.084,-0.307l-0.082,-0.308l-0.079,-0.308l-0.078,-0.309l-0.076,-0.309l-0.074,-0.309l-0.072,-0.31l-0.07,-0.31l-0.069,-0.31l-0.066,-0.31l-0.064,-0.31l-0.062,-0.311l-0.061,-0.311l-0.058,-0.311l-0.056,-0.312l-0.055,-0.312l-0.053,-0.311l-0.05,-0.312l-0.049,-0.313l-0.047,-0.312l-0.045,-0.312l-0.042,-0.313l-0.041,-0.313l-0.039,-0.313l-0.038,-0.313l-0.035,-0.313l-0.033,-0.313l-0.032,-0.313l-0.029,-0.314l-0.028,-0.313l-0.025,-0.314l-0.024,-0.313l-0.022,-0.314l-0.02,-0.313l-0.018,-0.314l-0.016,-0.314l-0.014,-0.314l-0.013,-0.313l-0.01,-0.314l-0.009,-0.314l-0.007,-0.313l-0.005,-0.314l-0.002,-0.313l-0.002,-0.314l0.001,-0.313l0.003,-0.314l0.004,-0.313l0.007,-0.313l0.008,-0.313l0.01,-0.313l0.012,-0.313l0.014,-0.313l0.016,-0.312l0.018,-0.313l0.019,-0.312l0.021,-0.312l0.023,-0.312l0.026,-0.312l0.026,-0.312l0.029,-0.311l0.031,-0.311l0.032,-0.311l0.034,-0.311l0.036,-0.311l0.038,-0.31l0.04,-0.31l0.042,-0.31l0.043,-0.31l0.045,-0.309l0.047,-0.309l0.049,-0.309l0.051,-0.308l0.052,-0.309l0.055,-0.307l0.056,-0.308l0.058,-0.307l0.06,-0.307l0.061,-0.307l0.064,-0.306l0.065,-0.305l0.067,-0.306l0.069,-0.305l0.071,-0.305l0.072,-0.304l0.074,-0.304l0.077,-0.303l0.077,-0.303l0.08,-0.303l0.082,-0.302l0.083,-0.302l0.085,-0.301l0.087,-0.301l0.088,-0.3l0.091,-0.3l0.092,-0.299l0.094,-0.299l0.096,-0.299l0.097,-0.297l0.1,-0.298l0.101,-0.297l0.103,-0.296l0.104,-0.296l0.107,-0.295l0.108,-0.294l0.11,-0.294l0.112,-0.294l0.113,-0.292l0.115,-0.293l0.118,-0.291l0.118,-0.291l0.121,-0.291l0.122,-0.289l0.124,-0.289l0.126,-0.289l0.128,-0.288l0.129,-0.287l0.131,-0.286l0.133,-0.286l0.135,-0.285l0.136,-0.284l0.138,-0.284l0.14,-0.283l0.142,-0.282l0.143,-0.281l0.145,-0.281l0.147,-0.28l0.149,-0.279l0.15,-0.278l0.152,-0.278l0.154,-0.276l0.155,-0.276l0.157,-0.275l0.159,-0.275l0.161,-0.273l0.163,-0.273l0.164,-0.272l0.166,-0.27l0.167,-0.27l0.17,-0.27l0.171,-0.268l0.172,-0.267l0.175,-0.267l0.176,-0.265l0.178,-0.265l0.18,-0.264l0.181,-0.262l0.183,-0.262l0.185,-0.261l0.186,-0.26l0.188,-0.258l0.19,-0.258l0.191,-0.257l0.194,-0.256l0.195,-0.255l0.196,-0.253l0.199,-0.253l0.2,-0.252l0.201,-0.25l0.204,-0.25l0.205,-0.248l0.206,-0.248l0.209,-0.246l0.21,-0.245l0.211,-0.244l0.214,-0.243l0.215,-0.242l0.217,-0.24l0.218,-0.24l0.22,-0.238l0.222,-0.237l0.223,-0.236l0.225,-0.235l0.227,-0.233l0.228,-0.233l0.23,-0.231l0.232,-0.229l0.233,-0.229l0.235,-0.227l0.237,-0.226l0.238,-0.225l0.24,-0.223l0.241,-0.223l0.243,-0.22l0.245,-0.22l0.246,-0.218l0.248,-0.217l0.25,-0.215l0.251,-0.215l0.253,-0.212l0.254,-0.212l0.256,-0.21l0.257,-0.208l0.259,-0.207l0.261,-0.206l0.262,-0.204l0.264,-0.203l0.266,-0.202l0.267,-0.2l0.268,-0.198l0.271,-0.197l0.271,-0.196l0.274,-0.194l0.274,-0.192l0.274,-0.19l0.211,-0.143l0.208,-0.141l0.209,-0.14l0.21,-0.139l0.21,-0.137l0.21,-0.137l0.211,-0.135l0.211,-0.134l0.212,-0.133l0.212,-0.132l0.213,-0.131l0.213,-0.13l0.213,-0.128l0.214,-0.128l0.214,-0.126l0.215,-0.125l0.215,-0.124l0.216,-0.123l0.216,-0.122l0.217,-0.121l0.216,-0.12l0.218,-0.118l0.217,-0.118l0.218,-0.116l0.219,-0.115l0.218,-0.114l0.22,-0.113l0.219,-0.112l0.22,-0.11l0.22,-0.11l0.221,-0.108l0.221,-0.108l0.221,-0.106l0.222,-0.105l0.222,-0.104l0.222,-0.103l0.223,-0.102l0.223,-0.101l0.223,-0.099l0.223,-0.098l0.224,-0.098l0.225,-0.096l0.224,-0.095l0.225,-0.094l0.225,-0.093l0.226,-0.092l0.225,-0.09l0.226,-0.09l0.226,-0.088l0.227,-0.088l0.227,-0.086l0.227,-0.085l0.227,-0.084l0.228,-0.083l0.228,-0.082l0.228,-0.081l0.228,-0.079l0.229,-0.079l0.228,-0.077l0.23,-0.077l0.229,-0.075l0.229,-0.074l0.23,-0.073l0.23,-0.072l0.23,-0.071l0.23,-0.069l0.231,-0.069l0.231,-0.067l0.231,-0.067l0.231,-0.065l0.231,-0.064l0.232,-0.064l0.231,-0.062l0.232,-0.061l0.232,-0.06l0.232,-0.058l0.233,-0.058l0.232,-0.057l0.233,-0.055l0.233,-0.055l0.233,-0.053l0.233,-0.052l0.233,-0.051l0.233,-0.05l0.234,-0.05l0.234,-0.047l0.233,-0.047l0.234,-0.046l0.234,-0.045l0.234,-0.043l0.235,-0.043l0.234,-0.041l0.234,-0.041l0.235,-0.039l0.234,-0.038l0.235,-0.037l0.235,-0.037l0.235,-0.035l0.235,-0.033l0.235,-0.033l0.235,-0.032l0.235,-0.031l0.235,-0.03l0.235,-0.028l0.236,-0.028l0.235,-0.026l0.235,-0.026l0.236,-0.024l0.235,-0.023l0.236,-0.022l0.235,-0.021l0.236,-0.021l0.235,-0.019l0.236,-0.017l0.236,-0.017l0.235,-0.016l0.236,-0.015l0.236,-0.014l0.235,-0.012l0.236,-0.012l0.236,-0.011l0.235,-0.009l0.236,-0.009l0.235,-0.007l0.236,-0.006l0.235,-0.006l0.236,-0.004l0.235,-0.003l0.236,-0.002l0.235,-0.001l0.236,0l0.235,0.001Z" style="fill:#ff5900;"/></g><g id="text2995"><g transform="matrix(1,0,0,1,92.8861,90.1245)"><path d="M44.788,-36.218c0,3.003 -0.715,5.81 -2.143,8.423c-1.428,2.612 -3.509,4.724 -6.244,6.335c-2.734,1.611 -6.018,2.417 -9.851,2.417l-8.02,0l0,19.043l-13.11,0l0,-53.394l21.147,0c3.83,0 7.11,0.8 9.842,2.399c2.732,1.599 4.811,3.705 6.238,6.317c1.427,2.613 2.141,5.432 2.141,8.46Zm-13.111,0.018c0,-0.949 -0.226,-1.837 -0.679,-2.664c-0.453,-0.828 -1.114,-1.491 -1.983,-1.989c-0.869,-0.499 -1.879,-0.749 -3.03,-0.749l-7.455,0l0,10.767l7.455,0c1.151,0 2.161,-0.249 3.03,-0.748c0.869,-0.499 1.53,-1.156 1.983,-1.971c0.453,-0.815 0.679,-1.697 0.679,-2.646Z" style="fill:#383e5b;fill-rule:nonzero;"/><path d="M88.733,0l-36.292,0l0,-53.394l36.292,0l0,11.683l-23.181,0l0,8.935l19.812,0l0,11.682l-19.812,0l0,9.412l23.181,0l0,11.682Z" style="fill:#383e5b;fill-rule:nonzero;"/><path d="M139.709,0l-11.462,0l-17.102,-26.843l0,26.843l-13.11,0l0,-53.394l11.467,0l17.097,26.844l0,-26.844l13.11,0l0,53.394Z" style="fill:#383e5b;fill-rule:nonzero;"/><path d="M190.283,-26.697l0,4.358c0,2.588 -0.116,4.791 -0.347,6.61c-0.232,1.819 -0.75,3.614 -1.555,5.384c-0.805,1.77 -2.025,3.472 -3.659,5.108c-3.488,3.491 -8.281,5.237 -14.379,5.237l-19.794,0l0,-53.394l19.794,0c6.098,0 10.891,1.746 14.379,5.237c1.634,1.636 2.854,3.339 3.659,5.109c0.805,1.77 1.323,3.564 1.555,5.383c0.231,1.819 0.347,4.022 0.347,6.61l0,4.358Zm-13.11,0c0,-4.394 -0.092,-7.293 -0.276,-8.697c-0.183,-1.404 -0.557,-2.509 -1.12,-3.314c-1.346,-2.002 -3.451,-3.003 -6.316,-3.003l-5.801,0l0,30.029l5.801,0c2.865,0 4.97,-1.001 6.316,-3.003c0.416,-0.635 0.704,-1.263 0.863,-1.886c0.16,-0.623 0.288,-1.691 0.386,-3.204c0.098,-1.514 0.147,-3.821 0.147,-6.922Z" style="fill:#76a2db;fill-opacity:0.968627;fill-rule:nonzero;"/><path d="M242.908,0l-13.697,0l-2.49,-7.947l-16.443,0l-2.6,7.947l-13.733,0l19.409,-53.394l10.145,0l19.409,53.394Zm-19.629,-18.896l-4.505,-14.246l-4.797,14.246l9.302,0Z" style="fill:#383e5b;fill-rule:nonzero;"/><path d="M284.546,-41.711l-13.147,0l0,41.711l-13.11,0l0,-41.711l-13.147,0l0,-11.683l39.404,0l0,11.683Z" style="fill:#383e5b;fill-rule:nonzero;"/><path d="M335.742,0l-13.696,0l-2.49,-7.947l-16.443,0l-2.6,7.947l-13.733,0l19.409,-53.394l10.144,0l19.409,53.394Zm-19.629,-18.896l-4.504,-14.246l-4.797,14.246l9.301,0Z" style="fill:#383e5b;fill-rule:nonzero;"/></g></g><g id="text2999"><g transform="matrix(1.57832,0,0,0.575206,291.106,121.951)"><g transform="matrix(0.556491,0,0,1.2,0,0)"><path d="M21.648,-27.385l0,4.628l-12.851,0l0,6.731l10.403,0l0,4.628l-10.403,0l0,11.398l-4.972,0l0,-27.385l17.823,0Z" style="fill:#383e5b;fill-rule:nonzero;"/><path d="M32.548,0l-4.972,0l0,-27.385l11.054,0c1.147,0 2.231,0.217 3.251,0.65c1.02,0.434 1.899,1.033 2.639,1.798c0.739,0.765 1.326,1.657 1.759,2.677c0.434,1.02 0.65,2.104 0.65,3.251c0,1.607 -0.389,3.054 -1.166,4.341c-0.778,1.288 -1.817,2.289 -3.117,3.003l4.283,11.665l-5.278,0l-3.863,-10.633l-5.24,0l0,10.633Zm6.082,-15.261c1.045,0 1.861,-0.363 2.447,-1.09c0.587,-0.726 0.88,-1.612 0.88,-2.658c0,-1.045 -0.293,-1.931 -0.88,-2.658c-0.586,-0.727 -1.402,-1.09 -2.447,-1.09l-6.082,0l0,7.496l6.082,0Z" style="fill:#383e5b;fill-rule:nonzero;"/></g><g transform="matrix(0.556491,0,0,1.2,12.3377,0)"><path d="M34.359,0l-4.819,0l8.146,-27.385l5.202,0l8.147,27.385l-4.82,0l-1.721,-5.814l-8.452,0l-1.683,5.814Zm3.06,-10.441l5.737,0l-2.869,-11.704l-2.868,11.704Z" style="fill:#76a2db;fill-opacity:0.968627;fill-rule:nonzero;"/><path d="M75.933,0l-5.01,0l-9.371,-18.473l0,18.473l-4.972,0l0,-27.385l5.011,0l9.37,18.473l0,-18.473l4.972,0l0,27.385Z" style="fill:#76a2db;fill-opacity:0.968627;fill-rule:nonzero;"/></g><g transform="matrix(0.556491,0,0,1.2,25.1569,0)"><path d="M75.081,-21.151c-0.204,-0.586 -0.548,-1.051 -1.033,-1.396c-0.484,-0.344 -1.058,-0.516 -1.721,-0.516l-4.169,0c-0.943,0 -1.683,0.325 -2.218,0.975c-0.535,0.65 -0.803,1.447 -0.803,2.391l0,12.009c0,0.944 0.268,1.741 0.803,2.391c0.535,0.65 1.275,0.975 2.218,0.975l4.169,0c0.663,0 1.237,-0.172 1.721,-0.516c0.485,-0.344 0.829,-0.81 1.033,-1.396l4.437,2.065c-0.663,1.326 -1.632,2.403 -2.907,3.232c-1.275,0.829 -2.703,1.243 -4.284,1.243l-4.169,0c-1.096,0 -2.129,-0.21 -3.098,-0.631c-0.969,-0.421 -1.816,-0.995 -2.543,-1.721c-0.727,-0.727 -1.301,-1.575 -1.721,-2.544c-0.421,-0.969 -0.631,-2.001 -0.631,-3.098l0,-12.009c0,-1.097 0.21,-2.129 0.631,-3.098c0.42,-0.969 0.994,-1.817 1.721,-2.544c0.727,-0.726 1.574,-1.3 2.543,-1.721c0.969,-0.421 2.002,-0.631 3.098,-0.631l4.169,0c1.581,0 3.009,0.414 4.284,1.243c1.275,0.829 2.244,1.906 2.907,3.232l-4.437,2.065Z" style="fill:#ff5900;fill-rule:nonzero;"/><path d="M103.843,-27.385l0,4.628l-12.851,0l0,6.731l10.403,0l0,4.628l-10.403,0l0,6.77l12.851,0l0,4.628l-17.823,0l0,-27.385l17.823,0Z" style="fill:#ff5900;fill-rule:nonzero;"/></g></g></g><rect id="rect5826" x="121" y="110" width="153" height="5" style="fill:#76a2db;fill-opacity:0.939569;"/></svg>