<svg xmlns="http://www.w3.org/2000/svg" viewBox="0 0 120.23 36.7"><defs><style>.cls-1{fill:#0069b4;}.cls-2{fill:#103e66;}</style></defs><g id="Calque_2" data-name="Calque 2"><g id="Calque_1-2" data-name="Calque 1"><path class="cls-1" d="M3.22,28.53a2.72,2.72,0,0,1,2.13.88,3.42,3.42,0,0,1,.8,2.37,3.37,3.37,0,0,1-.8,2.36A2.69,2.69,0,0,1,3.22,35a2.78,2.78,0,0,1-2.15-.88,3.41,3.41,0,0,1-.79-2.37,3.41,3.41,0,0,1,.79-2.37A2.78,2.78,0,0,1,3.22,28.53ZM5,29.64a2.24,2.24,0,0,0-1.79-.78,2.26,2.26,0,0,0-1.8.78,3.22,3.22,0,0,0-.66,2.14,3.19,3.19,0,0,0,.66,2.13,2.24,2.24,0,0,0,1.8.79A2.22,2.22,0,0,0,5,33.91a3.24,3.24,0,0,0,.65-2.13A3.27,3.27,0,0,0,5,29.64Z"></path><path class="cls-1" d="M10.33,34.2a2.13,2.13,0,0,0,.54-1.64,2.1,2.1,0,0,0-.54-1.63,1.61,1.61,0,0,0-1.11-.5,1.61,1.61,0,0,0-1.11.5,2.14,2.14,0,0,0-.53,1.63,2.17,2.17,0,0,0,.53,1.64,1.5,1.5,0,0,0,2.22,0Zm-2.75-.36V36.7H7.16V30.21h.42v1.07a2,2,0,0,1,.63-.84,1.77,1.77,0,0,1,1-.35,2,2,0,0,1,1.53.68,3,3,0,0,1,0,3.58A2,2,0,0,1,9.18,35a1.77,1.77,0,0,1-1-.35A2,2,0,0,1,7.58,33.84Z"></path><path class="cls-1" d="M16,32.28a1.9,1.9,0,0,0-.49-1.44,1.5,1.5,0,0,0-1.11-.41,2,2,0,0,0-1.29.42,2,2,0,0,0-.57,1.43Zm.42.09v.24h-3.9A2.16,2.16,0,0,0,13,34.2a2.24,2.24,0,0,0,1.59.5,3.58,3.58,0,0,0,.73-.11,4.17,4.17,0,0,0,.91-.33v.41a5.29,5.29,0,0,1-.94.27,4.34,4.34,0,0,1-.76.09,2.43,2.43,0,0,1-1.79-.59A2.43,2.43,0,0,1,12,32.61a2.58,2.58,0,0,1,.6-1.87,2.21,2.21,0,0,1,1.7-.65,1.89,1.89,0,0,1,1.52.61A2.6,2.6,0,0,1,16.37,32.37Z"></path><path class="cls-1" d="M21.18,32.07v2.84h-.43V32.1a2,2,0,0,0-.32-1.29,1.17,1.17,0,0,0-.94-.38,2,2,0,0,0-1.25.41,1.68,1.68,0,0,0-.53,1.41v2.66h-.42v-4.7h.42v.88a1.67,1.67,0,0,1,.6-.66,2.26,2.26,0,0,1,1.2-.34,1.59,1.59,0,0,1,1.21.48A2.06,2.06,0,0,1,21.18,32.07Z"></path><path class="cls-1" d="M27.73,30.35v.42a3,3,0,0,0-.56-.25,4.12,4.12,0,0,0-.8-.09,2.09,2.09,0,0,0-1.14.27.83.83,0,0,0-.31.75.63.63,0,0,0,.3.55,2.38,2.38,0,0,0,.9.34l.29.06a3.11,3.11,0,0,1,1.11.41,1,1,0,0,1,.46.8,1.34,1.34,0,0,1-.43,1,2.35,2.35,0,0,1-1.48.37A3.87,3.87,0,0,1,25.2,35l-.74-.22v-.49a4.54,4.54,0,0,0,.72.34,4.1,4.1,0,0,0,.9.11,1.73,1.73,0,0,0,1.1-.28.91.91,0,0,0,.36-.75.65.65,0,0,0-.24-.56,2.78,2.78,0,0,0-1.1-.41l-.29-.07a2.55,2.55,0,0,1-1-.39.93.93,0,0,1-.43-.76A1.16,1.16,0,0,1,25,30.42a2.27,2.27,0,0,1,1.26-.33,4,4,0,0,1,.88.07A3.93,3.93,0,0,1,27.73,30.35Z"></path><path class="cls-1" d="M30.7,30.09a1.93,1.93,0,0,1,1.55.68,2.67,2.67,0,0,1,.58,1.79,2.7,2.7,0,0,1-.58,1.82,1.92,1.92,0,0,1-1.55.67,2,2,0,0,1-1.57-.67,3.16,3.16,0,0,1,0-3.62A2,2,0,0,1,30.7,30.09Zm1.24.92a1.62,1.62,0,0,0-2.48,0A2.38,2.38,0,0,0,29,32.55a2.41,2.41,0,0,0,.46,1.57,1.62,1.62,0,0,0,2.48,0,2.43,2.43,0,0,0,.46-1.57A2.39,2.39,0,0,0,31.94,31Z"></path><path class="cls-1" d="M33.88,33.05V30.21h.42V33a2,2,0,0,0,.32,1.29,1.19,1.19,0,0,0,1,.37,2,2,0,0,0,1.25-.4,1.69,1.69,0,0,0,.52-1.42V30.21h.43v4.7h-.43V34a1.62,1.62,0,0,1-.59.65,2.18,2.18,0,0,1-1.2.34,1.64,1.64,0,0,1-1.22-.47A2.14,2.14,0,0,1,33.88,33.05Z"></path><path class="cls-1" d="M41.82,30.54a1.2,1.2,0,0,0-.28-.08,2.06,2.06,0,0,0-.39,0,1.76,1.76,0,0,0-1.3.53,2.14,2.14,0,0,0-.4,1.47v2.48H39v-4.7h.42v.88a1.86,1.86,0,0,1,.58-.64,2.06,2.06,0,0,1,1.21-.36l.31,0a1.18,1.18,0,0,1,.27,0Z"></path><path class="cls-1" d="M45.42,30.43v.42a3.21,3.21,0,0,0-.63-.29,2.74,2.74,0,0,0-.82-.13,2.11,2.11,0,0,0-1.59.52,2.28,2.28,0,0,0-.49,1.61,2.29,2.29,0,0,0,.49,1.62A2.07,2.07,0,0,0,44,34.7a3,3,0,0,0,.73-.09,3.52,3.52,0,0,0,.72-.27v.39a3.86,3.86,0,0,1-.73.23,4,4,0,0,1-.76.07,2.7,2.7,0,0,1-1.79-.56,2.35,2.35,0,0,1-.67-1.91,2.37,2.37,0,0,1,.67-1.91,2.7,2.7,0,0,1,1.79-.56,3.8,3.8,0,0,1,.79.1A2.86,2.86,0,0,1,45.42,30.43Z"></path><path class="cls-1" d="M49.76,32.28a1.86,1.86,0,0,0-.49-1.44,1.5,1.5,0,0,0-1.11-.41,2,2,0,0,0-1.29.42,2,2,0,0,0-.57,1.43Zm.43.09v.24H46.28a2.16,2.16,0,0,0,.48,1.59,2.28,2.28,0,0,0,1.59.5,3.49,3.49,0,0,0,.73-.11,4,4,0,0,0,.91-.33v.41a5,5,0,0,1-.93.27,4.34,4.34,0,0,1-.76.09,2.43,2.43,0,0,1-1.79-.59,2.4,2.4,0,0,1-.66-1.83,2.58,2.58,0,0,1,.6-1.87,2.24,2.24,0,0,1,1.7-.65,1.92,1.92,0,0,1,1.53.61A2.6,2.6,0,0,1,50.19,32.37Z"></path><path class="cls-1" d="M56.09,30.35v.42a3.29,3.29,0,0,0-.56-.25,4.22,4.22,0,0,0-.8-.09,2.07,2.07,0,0,0-1.14.27.84.84,0,0,0-.32.75.63.63,0,0,0,.3.55,2.37,2.37,0,0,0,.91.34l.29.06a3.13,3.13,0,0,1,1.1.41,1,1,0,0,1,.46.8,1.31,1.31,0,0,1-.43,1,2.33,2.33,0,0,1-1.48.37,3.72,3.72,0,0,1-.86-.07c-.24-.06-.49-.14-.75-.22v-.49a4.93,4.93,0,0,0,.73.34,4,4,0,0,0,.9.11,1.75,1.75,0,0,0,1.1-.28.91.91,0,0,0,.36-.75.65.65,0,0,0-.24-.56,2.84,2.84,0,0,0-1.1-.41l-.3-.07a2.44,2.44,0,0,1-1-.39.91.91,0,0,1-.43-.76,1.15,1.15,0,0,1,.51-1.06,2.33,2.33,0,0,1,1.27-.33,4.1,4.1,0,0,1,.88.07A3.93,3.93,0,0,1,56.09,30.35Z"></path><path class="cls-1" d="M57.77,28.87v1.34h1.74v.32H57.77v2.83a1.36,1.36,0,0,0,.15.75,1,1,0,0,0,.91.47h.68v.33h-.66a1.67,1.67,0,0,1-1.07-.34,1.45,1.45,0,0,1-.44-1.21V30.53h-.62v-.32h.62V28.87Z"></path><path class="cls-1" d="M63.6,32.23v2.68h-.42V33.63a1.91,1.91,0,0,1-.94,1.19,2.17,2.17,0,0,1-.92.21,1.82,1.82,0,0,1-1.21-.37,1.54,1.54,0,0,1,.14-2.28,3.15,3.15,0,0,1,1.88-.44h1v-.07a1.42,1.42,0,0,0-.39-1,1.69,1.69,0,0,0-1.28-.41,2.67,2.67,0,0,0-.9.16,3.42,3.42,0,0,0-.76.39v-.42a3.41,3.41,0,0,1,1.75-.47,2.2,2.2,0,0,1,1.5.51A2.08,2.08,0,0,1,63.6,32.23Zm-1.58,0a2.53,2.53,0,0,0-1.47.33,1.12,1.12,0,0,0-.45,1,1,1,0,0,0,.38.88,1.5,1.5,0,0,0,.88.26A1.48,1.48,0,0,0,62.75,34a2.9,2.9,0,0,0,.42-1.4v-.29Z"></path><path class="cls-1" d="M67.74,30.54a1.25,1.25,0,0,0-.27-.08,2.25,2.25,0,0,0-.4,0,1.76,1.76,0,0,0-1.3.53,2.19,2.19,0,0,0-.4,1.47v2.48H65v-4.7h.41v.88a1.86,1.86,0,0,1,.58-.64,2.06,2.06,0,0,1,1.21-.36l.32,0a1.09,1.09,0,0,1,.26,0Z"></path><path class="cls-1" d="M68.39,28.87v1.34h1.74v.32H68.39v2.83a1.36,1.36,0,0,0,.15.75,1,1,0,0,0,.91.47h.68v.33h-.66a1.67,1.67,0,0,1-1.07-.34A1.45,1.45,0,0,1,68,33.36V30.53h-.62v-.32H68V28.87Z"></path><rect class="cls-1" x="69.98" y="32.38" width="2.48" height="0.34"></rect><path class="cls-1" d="M73.68,33.05V30.21h.42V33a2,2,0,0,0,.32,1.29,1.17,1.17,0,0,0,1,.37,2,2,0,0,0,1.25-.4,1.69,1.69,0,0,0,.52-1.42V30.21h.42v4.7h-.42V34a1.7,1.7,0,0,1-.59.65,2.18,2.18,0,0,1-1.2.34,1.63,1.63,0,0,1-1.22-.47A2.14,2.14,0,0,1,73.68,33.05Z"></path><path class="cls-1" d="M82.07,34.2a2.13,2.13,0,0,0,.54-1.64,2.1,2.1,0,0,0-.54-1.63,1.48,1.48,0,0,0-2.22,0,2.14,2.14,0,0,0-.53,1.63,2.17,2.17,0,0,0,.53,1.64,1.5,1.5,0,0,0,2.22,0Zm-2.75-.36V36.7H78.9V30.21h.42v1.07a2,2,0,0,1,.63-.84,1.77,1.77,0,0,1,1-.35,2,2,0,0,1,1.53.68,3,3,0,0,1,0,3.58,2,2,0,0,1-1.53.68,1.77,1.77,0,0,1-1-.35A2,2,0,0,1,79.32,33.84Z"></path><path class="cls-1" d="M89.44,34.2A2.13,2.13,0,0,0,90,32.56a2.1,2.1,0,0,0-.54-1.63,1.48,1.48,0,0,0-2.22,0,2.14,2.14,0,0,0-.53,1.63,2.17,2.17,0,0,0,.53,1.64,1.5,1.5,0,0,0,2.22,0Zm-2.75-.36V36.7h-.42V30.21h.42v1.07a2,2,0,0,1,.62-.84,1.83,1.83,0,0,1,1-.35,2,2,0,0,1,1.53.68,3,3,0,0,1,0,3.58,2,2,0,0,1-1.53.68,1.83,1.83,0,0,1-1-.35A2,2,0,0,1,86.69,33.84Z"></path><path class="cls-1" d="M94.42,30.54a1.2,1.2,0,0,0-.28-.08,2.06,2.06,0,0,0-.39,0,1.76,1.76,0,0,0-1.3.53,2.14,2.14,0,0,0-.4,1.47v2.48h-.41v-4.7h.41v.88a1.86,1.86,0,0,1,.58-.64,2,2,0,0,1,1.21-.36l.31,0a1.18,1.18,0,0,1,.27,0Z"></path><path class="cls-1" d="M96.51,30.09a1.93,1.93,0,0,1,1.55.68,2.67,2.67,0,0,1,.57,1.79,2.7,2.7,0,0,1-.57,1.82,2.15,2.15,0,0,1-3.12,0,3.16,3.16,0,0,1,0-3.62A2,2,0,0,1,96.51,30.09Zm1.24.92a1.62,1.62,0,0,0-2.48,0,2.38,2.38,0,0,0-.46,1.54,2.41,2.41,0,0,0,.46,1.57,1.62,1.62,0,0,0,2.48,0,2.43,2.43,0,0,0,.46-1.57A2.39,2.39,0,0,0,97.75,31Z"></path><path class="cls-1" d="M103.68,34.33a2.29,2.29,0,0,1-.62,1.91,2.46,2.46,0,0,1-1.55.46,5.73,5.73,0,0,1-.84-.06,5,5,0,0,1-.76-.19V36a3.83,3.83,0,0,0,.73.27,3.06,3.06,0,0,0,.74.09,2.74,2.74,0,0,0,1.32-.3c.37-.2.55-.73.55-1.61v-.73a1.84,1.84,0,0,1-.52.76,1.7,1.7,0,0,1-1.13.42,1.93,1.93,0,0,1-1.53-.63,2.67,2.67,0,0,1-.54-1.78,2.64,2.64,0,0,1,.54-1.77,1.94,1.94,0,0,1,1.53-.64,1.67,1.67,0,0,1,1.07.36,2.05,2.05,0,0,1,.58.76v-1h.43Zm-.43-1.83a2.34,2.34,0,0,0-.43-1.51,1.65,1.65,0,0,0-2.44,0A2.4,2.4,0,0,0,100,32.5a2.43,2.43,0,0,0,.43,1.52,1.65,1.65,0,0,0,2.44,0A2.37,2.37,0,0,0,103.25,32.5Z"></path><path class="cls-1" d="M107.66,30.54a1.2,1.2,0,0,0-.28-.08,2.06,2.06,0,0,0-.39,0,1.76,1.76,0,0,0-1.3.53,2.14,2.14,0,0,0-.4,1.47v2.48h-.42v-4.7h.42v.88a1.86,1.86,0,0,1,.58-.64,2,2,0,0,1,1.21-.36l.31,0a1.24,1.24,0,0,1,.27,0Z"></path><path class="cls-1" d="M111.57,32.23v2.68h-.42V33.63a1.9,1.9,0,0,1-.93,1.19,2.24,2.24,0,0,1-.93.21,1.82,1.82,0,0,1-1.21-.37,1.54,1.54,0,0,1,.14-2.28,3.15,3.15,0,0,1,1.88-.44h1.05v-.07a1.43,1.43,0,0,0-.4-1,1.68,1.68,0,0,0-1.27-.41,2.59,2.59,0,0,0-.9.16,3.45,3.45,0,0,0-.77.39v-.42a4,4,0,0,1,.77-.33,3.86,3.86,0,0,1,1-.14,2.2,2.2,0,0,1,1.5.51A2.08,2.08,0,0,1,111.57,32.23Zm-1.57,0a2.53,2.53,0,0,0-1.47.33,1.12,1.12,0,0,0-.45,1,1,1,0,0,0,.37.88,1.52,1.52,0,0,0,.88.26,1.47,1.47,0,0,0,1.39-.75,2.92,2.92,0,0,0,.43-1.4v-.29Z"></path><path class="cls-1" d="M116.83,31.23a1.71,1.71,0,0,1,.76-.85,2.24,2.24,0,0,1,1.16-.29,1.4,1.4,0,0,1,1.07.44,2.19,2.19,0,0,1,.41,1.54v2.84h-.42V32.1a2.1,2.1,0,0,0-.29-1.32,1,1,0,0,0-.78-.35,2.09,2.09,0,0,0-1.25.4,1.63,1.63,0,0,0-.59,1.42v2.66h-.43V32.1a2.17,2.17,0,0,0-.28-1.3.94.94,0,0,0-.79-.37,2,2,0,0,0-1.25.41,1.62,1.62,0,0,0-.6,1.41v2.66h-.42v-4.7h.42v.88a1.7,1.7,0,0,1,.7-.73,2.35,2.35,0,0,1,1.17-.27,1.6,1.6,0,0,1,.87.28A1.56,1.56,0,0,1,116.83,31.23Z"></path><path class="cls-1" d="M45.74,12.25a11.5,11.5,0,0,0-3.4-2L41.75,10l.46-.43.16-.15a5.3,5.3,0,0,0,1.56-3.78,6.81,6.81,0,0,0,0-.78l-.05-.28.26-.12A3.2,3.2,0,0,0,45,3.8l.6-.63a3.21,3.21,0,0,0-2.4-.57l-.23,0-.14-.18a5.8,5.8,0,0,0-.5-.58A5.9,5.9,0,0,0,38.46,0H38a5.65,5.65,0,0,0-4,1.45A6.14,6.14,0,0,0,32.41,6v5.15l-.27.08a4.92,4.92,0,0,0-3.57,4.68l0,1.54a5.08,5.08,0,0,0,3.22-1.5l.65-.67v.94c0,3,0,5.44,0,6.47,0,.43,0,.85,0,1.24h8.5a6.84,6.84,0,0,0,4.84-11.67M44,20.19l0,0a4.24,4.24,0,0,1-3,1.25h-6v-5c0-2.5,0-5.41,0-8.26V6a5.68,5.68,0,0,1,.35-2.2l0,0a1.47,1.47,0,0,1,.13-.24l0,0a.94.94,0,0,1,.11-.17,3,3,0,0,1,.51-.57,3.31,3.31,0,0,1,2.2-.8h0a3.29,3.29,0,0,1,2.79,1.54,3.11,3.11,0,0,1,.47,1.27,2.21,2.21,0,0,1,0,.51,3.38,3.38,0,0,1-.37,1.52,2.88,2.88,0,0,1-.57.89l0,0-.06.05-.08.07a2.89,2.89,0,0,0-.91,2.1,3,3,0,0,0,.06.59,2.9,2.9,0,0,0,1.87,2.13,10.5,10.5,0,0,1,1.93,1A4.25,4.25,0,0,1,44,14l0,0a4.33,4.33,0,0,1,0,6.12"></path><path class="cls-1" d="M38.91,5.56a.82.82,0,1,0-.82-.81.81.81,0,0,0,.82.81"></path><path class="cls-2" d="M54.8,11.63a5.89,5.89,0,0,0,0,11.78l4.72,0h1.14V22.25s0-3.61,0-4.73a5.89,5.89,0,0,0-5.89-5.89m3.57,8.66v.81H54.8a3.59,3.59,0,1,1,3.59-3.59c0,.55,0,1.73,0,2.77"></path><path class="cls-2" d="M68.14,11.56H62.75V21.3h0v2.12a2.11,2.11,0,0,0,2.12-2.08h0V13.68h3.27A3.82,3.82,0,0,1,72,17.52v5.91a2.11,2.11,0,0,0,2.13-2.09s0,0,0,0h0v-3.8a6,6,0,0,0-6-6"></path><path class="cls-2" d="M98.37,13.62h0v7.66H95.1a3.84,3.84,0,0,1-3.84-3.83V11.53a2.11,2.11,0,0,0-2.13,2.09v0h0v3.8a6,6,0,0,0,6,6h5.39V13.67h0V11.55a2.1,2.1,0,0,0-2.12,2.07"></path><path class="cls-2" d="M119.55,23.41a2.11,2.11,0,0,0-2.07-2.12h0l-8.59,0,7.55-7.59a2.1,2.1,0,0,0-2.07-2.12h0l-6.41,0h-2.12a2.1,2.1,0,0,0,2.07,2.12h5.54l-7.62,7.61a2.12,2.12,0,0,0,2.08,2.13h11.64Z"></path><path class="cls-2" d="M102.26,13.62h0v9.79h2.12V13.67h0V11.55a2.1,2.1,0,0,0-2.12,2.07"></path><path class="cls-2" d="M102.36,9.55l0,.76a2.11,2.11,0,0,0,2.12-2.08h0l0-.76a2.11,2.11,0,0,0-2.12,2.08"></path><path class="cls-2" d="M15.3,11.63a5.89,5.89,0,0,0,0,11.78l4.72,0h1.14V22.25s0-3.61,0-4.73a5.89,5.89,0,0,0-5.89-5.89m3.58,8.66c0,.29,0,.56,0,.81H15.3a3.59,3.59,0,1,1,3.59-3.59c0,.55,0,1.73,0,2.77"></path><path class="cls-2" d="M9.09,21.46a2,2,0,0,0-.83-.19H6a3.82,3.82,0,0,1-3.83-3.84c0-.38,0-8.8,0-8.8h0A2.09,2.09,0,0,0,0,6.54H0V17.4a7.84,7.84,0,0,0,.12,1.12,5.92,5.92,0,0,0,5.67,4.85l4.54,0a2.12,2.12,0,0,0-1.24-1.93"></path><path class="cls-2" d="M87.13,21.46h0l-.65-.65a5.81,5.81,0,0,0,.93-2.25l0-.28a6.53,6.53,0,0,0,0-.78,6,6,0,0,0-11.86-1.1l0,.27a6.84,6.84,0,0,0,0,.79,6,6,0,0,0,6,6A5.9,5.9,0,0,0,85,22.33l.67.67h0a2.12,2.12,0,0,0,3,0ZM78.8,20.18a3.83,3.83,0,0,1-1.13-2.72c0-.14,0-.27,0-.4a3.85,3.85,0,0,1,7.68.44c0,.13,0,.27,0,.39a3.91,3.91,0,0,1-.42,1.37l0,.06-.27-.27h0a2.11,2.11,0,0,0-3,0l1.49,1.53h0l.25.26a3.83,3.83,0,0,1-4.59-.64"></path></g></g></svg>