<svg xmlns="http://www.w3.org/2000/svg" xmlns:xlink="http://www.w3.org/1999/xlink" width="94.523" height="105.811" viewBox="0 0 94.523 105.811"><defs><clipPath id="a"><path d="M47.233-100.56a7.659,7.659,0,0,0-3.767,1h0L3.849-76.9A7.659,7.659,0,0,0,0-70.26H0v45.212a7.661,7.661,0,0,0,3.849,6.636h0L43.466,4.247a7.658,7.658,0,0,0,3.8,1h0a7.66,7.66,0,0,0,3.8-1h0l39.617-22.66a7.663,7.663,0,0,0,3.849-6.636h0V-70.26A7.661,7.661,0,0,0,90.674-76.9h0L51.057-99.556a7.652,7.652,0,0,0-3.766-1h0ZM44.58,2.3,4.963-20.361a5.413,5.413,0,0,1-2.719-4.688h0V-70.26a5.412,5.412,0,0,1,2.719-4.688h0L44.58-97.607a5.4,5.4,0,0,1,2.681-.709h0a5.388,5.388,0,0,1,2.68.709h0L89.56-74.948a5.412,5.412,0,0,1,2.719,4.688h0v45.212a5.413,5.413,0,0,1-2.719,4.688h0L49.941,2.3a5.4,5.4,0,0,1-2.68.709h0A5.406,5.406,0,0,1,44.58,2.3M36.775-73.535a1.012,1.012,0,0,0-1.015,1.016h0v16.985a6.186,6.186,0,0,0,6.206,6.2H58.723v7.054h-11.4a1.012,1.012,0,0,0-1.016,1.015h0v22.12H37.79v-26.8a1.012,1.012,0,0,0-1.015-1.016h0a1.011,1.011,0,0,0-1.015,1.016h0v27.816a1.011,1.011,0,0,0,1.015,1.016H47.327a1.011,1.011,0,0,0,1.014-1.016h0V-40.3H59.683a.965.965,0,0,0,1.015-.96h0v-9.084a1.011,1.011,0,0,0-1.015-1.015H41.966a4.166,4.166,0,0,1-4.175-4.175h0V-71.5H60.755V-64H47.327a1.012,1.012,0,0,0-1.016,1.015h0v6.039a1.011,1.011,0,0,0,1.016,1.014h0a1.01,1.01,0,0,0,1.014-1.014h0v-5.022H61.771a1.013,1.013,0,0,0,1.016-1.016h0v-9.536a1.014,1.014,0,0,0-1.016-1.016h-25Z" transform="translate(0 100.56)" fill="rgba(0,0,0,0)"/></clipPath><linearGradient id="b" x1="-0.026" y1="0.09" x2="0.43" y2="0.09" gradientUnits="objectBoundingBox"><stop offset="0" stop-color="#b8e68d"/><stop offset="0.1" stop-color="#a0dd8f"/><stop offset="0.2" stop-color="#85d391"/><stop offset="0.3" stop-color="#6bc993"/><stop offset="0.4" stop-color="#50bf95"/><stop offset="0.5" stop-color="#35b597"/><stop offset="0.6" stop-color="#1bac99"/><stop offset="0.7" stop-color="#00a29b"/><stop offset="0.8" stop-color="#00a5ab"/><stop offset="0.9" stop-color="#00a9bb"/><stop offset="1" stop-color="#00acca"/></linearGradient></defs><g clip-path="url(#a)"><g transform="translate(-45.818 79.358) rotate(-60)"><path d="M91.635,0,218.843,220.331l-91.635,52.906L0,52.906Z" transform="translate(0)" fill="url(#b)"/></g></g></svg>