<svg id="Calque_1" data-name="Calque 1" xmlns="http://www.w3.org/2000/svg" viewBox="0 0 152 36"><defs><style>.cls-1{fill:#7dd692;}.cls-2{fill:#5674ff;}.cls-3{fill:#a7e5ff;}.cls-4{fill:#fd7d5d;}.cls-5{fill:#fecf55;}.cls-6{fill:#221f20;}</style></defs><rect class="cls-1" x="22.44" y="-3.22" width="2.83" height="26.57" transform="translate(0.25 20.72) rotate(-47.17)"/><rect class="cls-2" x="-1.59" y="13.34" width="33.67" height="2.83" transform="translate(-5.62 10.88) rotate(-33.56)"/><rect class="cls-3" x="14.91" y="2.08" width="2.83" height="33.94" transform="translate(-8.58 22.09) rotate(-56.37)"/><rect class="cls-4" x="14.49" y="24.99" width="23.53" height="2.83" transform="translate(-10.96 27.75) rotate(-47.23)"/><rect class="cls-5" x="14.22" y="10.92" width="2.83" height="31.12" transform="translate(-12.79 38.22) rotate(-81.89)"/><path class="cls-6" d="M137.62,14.12a5.8,5.8,0,0,0-3-.8,6.75,6.75,0,0,0-3.29.82,6.31,6.31,0,0,0-2.43,2.38,7.13,7.13,0,0,0-.92,3.7,6.61,6.61,0,0,0,.87,3.39A6.24,6.24,0,0,0,131.28,26a7.72,7.72,0,0,0,8.56-1l.23-.19-1.48-2.17-.19.17a10,10,0,0,1-1.31.92,3.91,3.91,0,0,1-2,.45,4.32,4.32,0,0,1-2.85-.93A3.72,3.72,0,0,1,131,20.91h9.56l0-1.29a6.69,6.69,0,0,0-.79-3.28A6,6,0,0,0,137.62,14.12Zm-6.54,4.37a2.93,2.93,0,0,1,1.21-1.83,4.37,4.37,0,0,1,2.34-.62,3.11,3.11,0,0,1,1.38.32,3.14,3.14,0,0,1,1.08.9,2.49,2.49,0,0,1,.48,1.23Z"/><path class="cls-6" d="M68.11,14.87a6.37,6.37,0,0,0-1.24-.93,4.8,4.8,0,0,0-2.42-.6,6.41,6.41,0,0,0-3.28.85,6.17,6.17,0,0,0-2.26,2.38,7.3,7.3,0,0,0-.81,3.48,7.49,7.49,0,0,0,.79,3.5A6.23,6.23,0,0,0,61,26a5.59,5.59,0,0,0,3,.87,5.16,5.16,0,0,0,2.73-.73,7.5,7.5,0,0,0,1.34-1v1.53h3v-13h-3ZM67.75,18a4.53,4.53,0,0,1,.46,2,4.68,4.68,0,0,1-.46,2.08,3.53,3.53,0,0,1-1.26,1.44,3.42,3.42,0,0,1-1.88.52,3.35,3.35,0,0,1-1.83-.52,3.61,3.61,0,0,1-1.26-1.44,4.67,4.67,0,0,1-.45-2.08A4.56,4.56,0,0,1,61.52,18a3.45,3.45,0,0,1,1.26-1.41,3.6,3.6,0,0,1,3.71,0A3.61,3.61,0,0,1,67.75,18Z"/><polygon class="cls-6" points="48.72 9.43 45.67 9.43 45.67 26.58 56.56 26.58 56.56 23.64 48.72 23.64 48.72 9.43"/><rect class="cls-6" x="83.71" y="13.6" width="2.93" height="12.98"/><polygon class="cls-6" points="78.53 10.41 75.61 10.41 75.61 13.6 73 13.6 73 16.45 75.61 16.45 75.61 26.58 78.53 26.58 78.53 16.45 81.45 16.45 81.45 13.6 78.53 13.6 78.53 10.41"/><path class="cls-6" d="M149.68,19.4a15,15,0,0,0-2-.67,9,9,0,0,1-1.83-.63,1.15,1.15,0,0,1-.38-1.78,1.56,1.56,0,0,1,.72-.38,3.29,3.29,0,0,1,2.39.29,5.87,5.87,0,0,1,1.46,1.06l.17.17L152,15.58l-.13-.15a5.12,5.12,0,0,0-2.27-1.6,6.3,6.3,0,0,0-4.81,0A4.4,4.4,0,0,0,143,15.11a3.23,3.23,0,0,0-.68,2.06,3.42,3.42,0,0,0,.71,2.26,4.65,4.65,0,0,0,1.74,1.26,16.56,16.56,0,0,0,2.05.71c.45.11.87.23,1.24.36a2.48,2.48,0,0,1,.84.48.9.9,0,0,1,.28.72,1.14,1.14,0,0,1-.26.79,1.65,1.65,0,0,1-.69.43,2.39,2.39,0,0,1-.83.15,4.19,4.19,0,0,1-1.91-.4,4.46,4.46,0,0,1-1.4-1.1l-.16-.17-2,1.72.14.18a5.26,5.26,0,0,0,2.36,1.75,7.8,7.8,0,0,0,2.77.51,5.86,5.86,0,0,0,2.27-.46A4.41,4.41,0,0,0,151.26,25a3.34,3.34,0,0,0,.71-2.14,3.5,3.5,0,0,0-.66-2.26A4.1,4.1,0,0,0,149.68,19.4Z"/><path class="cls-6" d="M122.88,14.83a6,6,0,0,0-1.37-.92,5.54,5.54,0,0,0-2.53-.57,5.79,5.79,0,0,0-3.13.87,6.15,6.15,0,0,0-2.21,2.39,7.24,7.24,0,0,0-.82,3.48,7.32,7.32,0,0,0,.82,3.47,6.15,6.15,0,0,0,2.23,2.4,6,6,0,0,0,3.18.87,5,5,0,0,0,2.56-.67,6.18,6.18,0,0,0,1.27-.95v1.38h2.93V8.48h-2.93Zm-1.61,1.63a3.54,3.54,0,0,1,1.25,1.47,5.23,5.23,0,0,1,0,4.29,3.64,3.64,0,0,1-1.25,1.48,3.39,3.39,0,0,1-1.88.53,3.32,3.32,0,0,1-1.86-.53,3.83,3.83,0,0,1-1.27-1.48,4.87,4.87,0,0,1-.47-2.14,4.79,4.79,0,0,1,.47-2.15,3.73,3.73,0,0,1,1.27-1.47,3.25,3.25,0,0,1,1.86-.54A3.32,3.32,0,0,1,121.27,16.46Z"/><path class="cls-6" d="M85.13,7.79a1.78,1.78,0,0,0-1.42.55,1.88,1.88,0,0,0-.46,1.23,1.8,1.8,0,0,0,.47,1.28,1.88,1.88,0,0,0,1.41.5,1.76,1.76,0,0,0,1.42-.56A1.82,1.82,0,0,0,87,9.57a1.76,1.76,0,0,0-.47-1.28A1.83,1.83,0,0,0,85.13,7.79Z"/><polygon class="cls-6" points="94.39 10.41 91.47 10.41 91.47 13.6 88.86 13.6 88.86 16.45 91.47 16.45 91.47 26.58 94.39 26.58 94.39 16.45 97.31 16.45 97.31 13.6 94.39 13.6 94.39 10.41"/><path class="cls-6" d="M107.67,21.37a2.56,2.56,0,0,1-.86,2.08,3,3,0,0,1-2.07.76,2.38,2.38,0,0,1-2.42-1.64,4.82,4.82,0,0,1-.29-1.68V13.6H99.11v8a5.52,5.52,0,0,0,1.28,3.85,4.35,4.35,0,0,0,3.35,1.41,4.85,4.85,0,0,0,2.67-.72A5.79,5.79,0,0,0,107.67,25v1.54h2.92v-13h-2.92Z"/></svg>