<svg xmlns="http://www.w3.org/2000/svg" version="1.1" x="0" y="0" xml:space="preserve" id="svg3656" width="61.398" height="51.594"><style type="text/css" id="style3658">.st0{display:none}.st1{display:inline}.st2,.st3,.st4{fill:none;stroke:#000;stroke-width:2.8346;stroke-linecap:round;stroke-linejoin:round;stroke-miterlimit:10}.st3,.st4{stroke-width:1.4173}.st4{stroke-width:1.3941}.st5,.st6{display:inline}.st5{fill:none}.st6{stroke:#000;stroke-width:.2835;stroke-miterlimit:10}.st7{font-family:&apos;Raleway-Thin&apos;}.st8{font-size:11.642px}.st9{stroke:#000;stroke-width:.2835;stroke-miterlimit:10}</style><g id="layer3" transform="translate(-14.301 -21.203)"><g id="g3700"><g id="g3702"><path class="st4" id="polyline3704" fill="none" stroke="#000" stroke-width="1.394" stroke-linecap="round" stroke-linejoin="round" stroke-miterlimit="10" d="M48.2 71.3l14.1-8.1 7.1-4.1L73 57l.8-.5.4-.3.3-.3.3-.3.1-.4.1-.3v-.4"/><path class="st4" id="polyline3706" fill="none" stroke="#000" stroke-width="1.394" stroke-linecap="round" stroke-linejoin="round" stroke-miterlimit="10" d="M15 54.5v.4l.1.5.2.4.4.3.4.4.5.3 1 .6 4.2 2.4 8.4 4.8 8.3 4.8 2.1 1.2 1 .6.5.3.6.3.7.1.7.2h1.5l.7-.1.7-.2.6-.2.6-.3"/><path class="st4" id="polyline3708" fill="none" stroke="#000" stroke-width="1.394" stroke-linecap="round" stroke-linejoin="round" stroke-miterlimit="10" d="M72.1 37.3l-.1-.1-.1-.4-.3-.4-.3-.3-.5-.3-4.1-2.4-8.1-4.6-8.1-4.7-2-1.2-.5-.3-.5-.3-.6-.2-.7-.1-.7-.1h-.7l-.7.1-.7.1-.6.2-.6.2-1 .6"/><path class="st4" id="line3710" fill="none" stroke="#000" stroke-width="1.394" stroke-linecap="round" stroke-linejoin="round" stroke-miterlimit="10" d="M72.1 37.4v-.1"/><path class="st4" id="polyline3712" fill="none" stroke="#000" stroke-width="1.394" stroke-linecap="round" stroke-linejoin="round" stroke-miterlimit="10" d="M19.8 35.5l-.5.3-.5.3-.3.4-.3.3-.1.4v.2"/><path class="st4" id="line3714" fill="none" stroke="#000" stroke-width="1.394" stroke-linecap="round" stroke-linejoin="round" stroke-miterlimit="10" d="M15 54.5l3.1-17.1"/><path class="st4" id="line3716" fill="none" stroke="#000" stroke-width="1.394" stroke-linecap="round" stroke-linejoin="round" stroke-miterlimit="10" d="M72.1 37.3L75 54.5"/><path class="st4" id="line3718" fill="none" stroke="#000" stroke-width="1.394" stroke-linecap="round" stroke-linejoin="round" stroke-miterlimit="10" d="M72.1 37.3h0"/><path class="st4" id="polyline3720" fill="none" stroke="#000" stroke-width="1.394" stroke-linecap="round" stroke-linejoin="round" stroke-miterlimit="10" d="M19.8 35.5l2.6-.9 2.6-1 2.5-1.2 2.5-1.2 2.4-1.4 2.3-1.5 2.3-1.6 2.1-1.7 2.1-1.9"/></g></g><path d="M30.877 2.305c-.98-.011-1.58.102-2.197.412-.658.33-1.083.643-3.385 2.508-4.014 3.25-6.335 4.739-11.18 7.164-1.977.99-2.741 1.315-4.9 2.091-2.62.943-3.4 1.327-3.664 1.803-.154.276-.084.609.19.912.108.121 2.684 1.64 5.722 3.375 7.11 4.062 12.38 7.114 14.717 8.522 2.305 1.389 2.656 1.556 3.586 1.719 1.234.215 1.75.148 3.843-.508 4.293-1.345 6.6-2.327 10.47-4.457 2.657-1.464 3.664-2.111 6.54-4.2 1.496-1.086 4.975-4.12 5.24-4.568.192-.324.19-.703-.005-.951-.2-.252-1.627-1.096-11.864-7.008-4.691-2.71-8.888-5.142-9.326-5.406-1.77-1.067-2.653-1.396-3.787-1.408zM5.061 18.678c-.055.067-2.617 14.46-2.616 14.69.003.35.736 1.015 1.637 1.482.389.201 1.622.913 2.74 1.582 1.118.668 3.804 2.221 5.967 3.449a753.761 753.761 0 0 1 7.955 4.594 403.266 403.266 0 0 0 5.215 3.023 70.06 70.06 0 0 1 1.723.984c.619.376 1.142.562 2.02.721.347.063.7.119.786.123.348.018 1.95-.268 2.342-.418.232-.088 3.504-1.951 7.272-4.14 3.767-2.19 8.539-4.937 10.605-6.106 4.987-2.822 7.427-4.28 7.871-4.703.308-.293.357-.386.313-.596-.03-.137-.593-3.47-1.252-7.406-.66-3.937-1.212-7.172-1.229-7.19-.017-.017-.443.342-.945.797C51.31 23.332 47.599 25.83 42 28.63c-2.5 1.25-4.677 2.095-8.38 3.25-1.942.605-2.481.66-4.042.412-1.284-.204-1.751-.417-4.193-1.914-2.569-1.575-20.271-11.765-20.324-11.7z" transform="translate(14.301 21.203)" id="path1019" fill="#fff" fill-opacity="1" stroke="none" stroke-width="0" stroke-linecap="round" stroke-linejoin="round" stroke-miterlimit="4" stroke-dasharray="none" stroke-opacity="1"/></g><g id="g3680" transform="translate(-14.301 -21.203)"><g id="g3682"><path class="st3" id="polyline3684" fill="none" stroke="#000" stroke-width="1.417" stroke-linecap="round" stroke-linejoin="round" stroke-miterlimit="10" d="M48.1 70.5l13.6-7.9 6.9-3.9 3.4-2 .8-.5.4-.3.3-.3.3-.3.1-.3.1-.4-.1-.3"/><path class="st3" id="polyline3686" fill="none" stroke="#000" stroke-width="1.417" stroke-linecap="round" stroke-linejoin="round" stroke-miterlimit="10" d="M16 54.2v.5l.1.4.2.4.4.3.4.4.5.3 1 .5 4 2.4 8.1 4.6 8 4.7 2 1.1 1 .6.5.3.6.2.7.2.7.1.7.1.7-.1.7-.1.6-.1.6-.2.6-.3"/><path class="st3" id="polyline3688" fill="none" stroke="#000" stroke-width="1.417" stroke-linecap="round" stroke-linejoin="round" stroke-miterlimit="10" d="M70.5 39.1l.3-.4.2-.4.1-.4v-.3l-.1-.4-.3-.4-.3-.3-.5-.3-3.9-2.3-7.8-4.5-7.8-4.5-2-1.2-.5-.2-.5-.3-.6-.2-.6-.2h-.7l-.7-.1-.7.1-.6.1-.6.2-.6.3-.9.6"/><path class="st3" id="polyline3690" fill="none" stroke="#000" stroke-width="1.417" stroke-linecap="round" stroke-linejoin="round" stroke-miterlimit="10" d="M20.7 35.9l-.5.3-.5.3-.3.3-.3.4-.1.4v.4l.1.3.2.4.3.4.5.3.9.5 1.9 1.1 7.7 4.4 7.6 4.4 3.8 2.3.5.2.5.3.7.1.6.1.7.1h.6l.7-.1.6-.2"/><path class="st3" id="line3692" fill="none" stroke="#000" stroke-width="1.417" stroke-linecap="round" stroke-linejoin="round" stroke-miterlimit="10" d="M16 54.2l3-16.6"/><path class="st3" id="line3694" fill="none" stroke="#000" stroke-width="1.417" stroke-linecap="round" stroke-linejoin="round" stroke-miterlimit="10" d="M71.1 37.6l2.8 16.7"/><path class="st3" id="polyline3696" fill="none" stroke="#000" stroke-width="1.417" stroke-linecap="round" stroke-linejoin="round" stroke-miterlimit="10" d="M46.9 52.6l2.6-.8 2.6-.9 2.6-1.1 2.4-1.2 2.4-1.3 2.4-1.4 2.3-1.6 2.2-1.6 2.1-1.8 2-1.8"/><path class="st3" id="polyline3698" fill="none" stroke="#000" stroke-width="1.417" stroke-linecap="round" stroke-linejoin="round" stroke-miterlimit="10" d="M20.7 35.9l2.5-.9 2.5-.9 2.4-1.2 2.4-1.2 2.3-1.3 2.3-1.5 2.1-1.5 2.1-1.7 2.1-1.7"/></g></g><g id="layer2" transform="translate(-14.301 -21.203)" display="inline"><path d="M58.148 37.88c1.563.677 2.555 2.323 2.312 4.077-.292 2.11-2.261 3.605-4.383 3.286l-17.459-2.627-3.29-.43-.016-.002c-.007 0-.013-.002-.02-.003-2.11-.314-3.613-2.238-3.482-4.376a3.55 3.55 0 0 1 .026-.308v-.003c.307-2.263 2.364-3.843 4.583-3.524l4.029.58s-.332 2.464-1.944 2.232c-1.611-.232-2.309-1.17-3.112-1.285-1.612-.232-1.833 1.41-1.944 2.23v.005c-.084.63.177 1.115.717 1.33.714.283 1.808.015 2.64-1.224a.827.827 0 0 1 .139-.153l.04-.034a.797.797 0 0 1 .139-.086c.012-.006.023-.014.036-.019a.79.79 0 0 1 .19-.054c.014-.003.028-.003.042-.004a.794.794 0 0 1 .167 0c.01 0 .02-.002.03 0 .006 0 .012.004.018.005a.789.789 0 0 1 .195.057l.025.014a.8.8 0 0 1 .11.062c.014.01.024.021.036.03a.828.828 0 0 1 .154.16l.025.033a.824.824 0 0 1 .09.183c.002.005.006.008.007.014l1.059 3.107 13.905 2.129a3.825 3.825 0 0 1-.46-2.405c.169-1.22.9-2.225 1.896-2.8 0 0-16.755-8.623-16.708-8.961.01-.066.071-.176.098-.24 6.966 2.735 14.308 6.279 20.11 9.004zm-3.855 3.213a2.334 2.334 0 0 0 1.995 2.62 2.324 2.324 0 0 0 2.63-1.972 2.334 2.334 0 0 0-1.994-2.62 2.324 2.324 0 0 0-2.63 1.972z" id="path3630" fill="#e60000" fill-opacity="1" stroke="none" stroke-width=".6" stroke-miterlimit="4" stroke-dasharray="none" stroke-opacity="1"/></g></svg>